<svg id="圖層_1" data-name="圖層 1" xmlns="http://www.w3.org/2000/svg" viewBox="0 0 24.28 24.56"><defs><style>.cls-1{fill:#65737f;}.cls-2{fill:none;stroke:#65737f;stroke-linecap:round;stroke-linejoin:round;}</style></defs><path class="cls-1" d="M2.67,18.68a1.8,1.8,0,0,0,1.81,1.78H20a1.77,1.77,0,0,0,.1-3.54V10.73A7.43,7.43,0,0,0,12.6,3.38h-.72a7.43,7.43,0,0,0-7.5,7.35v6.19A1.79,1.79,0,0,0,2.67,18.68Z"/><path class="cls-1" d="M12.24.28A2.33,2.33,0,0,0,9.85,2.54h4.79A2.33,2.33,0,0,0,12.24.28Z"/><path class="cls-1" d="M12.24,24.28A2.33,2.33,0,0,0,14.64,22H9.85A2.33,2.33,0,0,0,12.24,24.28Z"/><path class="cls-2" d="M19.35,1.86a5.39,5.39,0,0,1,3,2.72"/><path class="cls-2" d="M20.73.5a5.39,5.39,0,0,1,3.05,2.72"/><path class="cls-2" d="M4.94,22.7A5.39,5.39,0,0,1,1.88,20"/><path class="cls-2" d="M3.56,24.06A5.39,5.39,0,0,1,.5,21.34"/></svg>