<svg id="圖層_1" data-name="圖層 1" xmlns="http://www.w3.org/2000/svg" viewBox="0 0 1227.98 861.92">
<defs>
<style>.cls-1,.cls-2,.cls-3,.cls-4,.cls-6{fill:none;}.cls-1,.cls-2,.cls-3,.cls-4,.cls-5,.cls-6,.cls-7{stroke:#354b5f;}.cls-1,.cls-2,.cls-4,.cls-5,.cls-7{stroke-miterlimit:10;}.cls-1{stroke-width:0.75px;}.cls-3,.cls-6{stroke-linecap:round;stroke-linejoin:round;}.cls-4,.cls-6,.cls-7{stroke-width:0.5px;}.cls-5,.cls-7{fill:#7b8ea4;}
</style>
</defs>
<path class="cls-1" d="M798.8,544c87.87,77,184,176.42,283.34,284.65"/>
<path class="cls-2" d="M750.16,531.63c5.48,9.86,97.48-45.79,104.13-114.93"/>
<path class="cls-3" d="M880.26,449.23c3.17,2.5-15.36,56.78-88,99"/>
<path class="cls-2" d="M792.34,548.21l289.8,280.46,145.15-179.19L1006.65,458.75s-66.71-72-100.83-19.3c-11,17-14.55,8.64-25.56,9.78l-.4-1.69c3.2-3.62.26-8.7-3.36-11.9l-20-17.68c-3.61-3.2-8.59-4.88-11.79-1.26L842,419c-10.34,4.43-37.92-20.07-48.29-30.44L420,.8S400.48-7.89,328.19,69c0,0-24,21.62-17,50.89C458.48,249.15,716.9,470.39,727,480c19.7,19.61,27,28.74,23.18,41.19-2.15,6.37-1.17,10.88,2.45,14.08l20,17.68c3.61,3.2,7.28,2.85,12.62-.4ZM447.54,113.07l-26.31,24.6a11.89,11.89,0,0,1-15.33.48l-36.1-27.29c-6.13-4.64-6.86-13.51-1.52-18.5l38.08-35.61c5.4-5,14.3-3.64,18.46,2.91L449.15,98A11.88,11.88,0,0,1,447.54,113.07Z"/>
<path class="cls-2" d="M436.29,123.59,418.61,139.5a12.29,12.29,0,0,1-10.7-.1L384,121.74c-4.14-3.14-4.67-9.11-1.1-12.44l25.43-23.79c3.6-3.36,9.59-2.38,12.41,2l16.53,25.88A8,8,0,0,1,436.29,123.59Z"/>
<path class="cls-4" d="M442.61,116.83l-22.34,21.63a11.3,11.3,0,0,1-12.95.35l-30.4-23.6c-5.18-3.38-5.52-6.93-1-10.57l31.91-28.88c4.55-3.68,12.07-2.66,15.59,2.12L444,105.81A7.81,7.81,0,0,1,442.61,116.83Z"/>
<path class="cls-3" d="M780.76,409.47c-12,19.12-26.16,34.69-43.12,45.77-3.29,3.49-9,3.46-12.76-.08l-15.64-14.74c-3.75-3.54-4.13-9.24-.84-12.73,16.76-12.19,31-27.61,43.12-45.77,3.3-3.49,9-3.46,12.76.08l15.64,14.74C783.68,400.27,784.05,406,780.76,409.47Z"/>
<path class="cls-3" d="M732.21,359.61c-13,20.79-28.47,37.74-46.92,49.79-3.58,3.8-9.79,3.76-13.88-.09l-17-16c-4.09-3.85-4.5-10-.92-13.85,18.24-13.26,33.74-30,46.92-49.79,3.58-3.8,9.79-3.76,13.88.08l17,16C735.38,349.6,735.79,355.81,732.21,359.61Z"/>
<path class="cls-3" d="M682.48,304.91c-14.78,23.58-32.26,42.78-53.17,56.44-4.06,4.31-11.11,4.26-15.74-.1l-19.28-18.17c-4.63-4.36-5.1-11.39-1-15.7,20.67-15,38.24-34.05,53.18-56.44,4.06-4.31,11.1-4.26,15.73.1l19.29,18.17C686.08,293.57,686.54,300.6,682.48,304.91Z"/>
<path class="cls-3" d="M623.08,243.5C607,269.18,587.93,290.11,565.15,305c-4.43,4.69-12.1,4.64-17.15-.11l-21-19.8c-5-4.75-5.55-12.41-1.13-17.11,22.52-16.37,41.66-37.09,57.94-61.49,4.42-4.69,12.1-4.64,17.14.11l21,19.8C627,231.14,627.5,238.8,623.08,243.5Z"/>
<path class="cls-3" d="M560.17,179.56c-16.92,27-36.92,49-60.86,64.6-4.65,4.94-12.72,4.89-18-.11l-22.07-20.8c-5.3-5-5.83-13-1.19-18,23.66-17.21,43.77-39,60.87-64.6,4.65-4.94,12.71-4.89,18,.11L559,161.59C564.29,166.58,564.82,174.63,560.17,179.56Z"/>
<path class="cls-5" d="M771.23,419c-9.94,15.5-21.54,28.23-35.25,37.42a7.17,7.17,0,0,1-10.14.22l-12.11-11.41a7.17,7.17,0,0,1-.38-10.13,153.29,153.29,0,0,0,35.25-37.42,7.18,7.18,0,0,1,10.14-.22l12.1,11.41A7.17,7.17,0,0,1,771.23,419Z"/>
<path class="cls-6" d="M774.6,415.18c-10.66,16.68-23.12,30.36-37.89,40.22a7.75,7.75,0,0,1-11,.19l-13.12-12.37a7.73,7.73,0,0,1-.46-10.93c14.61-10.82,27.14-24.36,37.89-40.22a7.74,7.74,0,0,1,10.94-.19l13.12,12.37A7.73,7.73,0,0,1,774.6,415.18Z"/>
<path class="cls-5" d="M722.38,370.51c-10.74,16.73-23.18,30.59-37.78,40.81a7.57,7.57,0,0,1-10.68.59L661.38,400.3a7.57,7.57,0,0,1-.23-10.69c14.48-11.14,27-24.88,37.78-40.81a7.56,7.56,0,0,1,10.68-.59l12.54,11.61A7.56,7.56,0,0,1,722.38,370.51Z"/>
<path class="cls-6" d="M725.4,366.38c-11.61,18.15-25.18,33-41.26,43.78a8.42,8.42,0,0,1-11.91.2L658,396.91a8.42,8.42,0,0,1-.5-11.9c15.91-11.78,29.55-26.52,41.25-43.78a8.42,8.42,0,0,1,11.91-.21l14.28,13.46A8.42,8.42,0,0,1,725.4,366.38Z"/>
<path class="cls-5" d="M674.1,313.17C660.65,333,645.45,349.6,628,362.09c-3.52,3.73-9,4.27-12.28,1.19l-13.59-12.8c-3.26-3.07-3-8.59.47-12.33,17.35-13.55,32.61-30,46.09-48.92,3.52-3.73,9-4.27,12.28-1.19l13.59,12.8C677.83,303.91,677.62,309.43,674.1,313.17Z"/>
<path class="cls-6" d="M673.6,313.57c-12.74,19.88-27.62,36.21-45.22,48a9.21,9.21,0,0,1-13,.27L599.8,347.17a9.21,9.21,0,0,1-.52-13c17.43-12.93,32.38-29.09,45.23-48a9.19,9.19,0,0,1,13-.26l15.56,14.66A9.21,9.21,0,0,1,673.6,313.57Z"/>
<path class="cls-5" d="M612,254.88c-13.72,21.08-29.6,38.48-48.23,51.19a9.62,9.62,0,0,1-13.6.54l-15.94-15a9.63,9.63,0,0,1-.27-13.61c18.47-13.89,34.42-31.13,48.23-51.19a9.63,9.63,0,0,1,13.6-.54l15.94,15A9.63,9.63,0,0,1,612,254.88Z"/>
<path class="cls-6" d="M615.75,251.18c-14.29,22.82-31.21,41.41-51.46,54.61-3.93,4.17-10.76,4.12-15.25-.11L530.32,288c-4.49-4.23-5-11.05-1-15.22,20-14.54,37-32.94,51.46-54.62,3.92-4.17,10.75-4.11,15.25.12L614.73,236C619.22,240.19,619.68,247,615.75,251.18Z"/>
<path class="cls-5" d="M551.38,189c-15,23.19-32.46,42.3-52.95,56.21a10.63,10.63,0,0,1-15,.52l-17.7-16.68a10.63,10.63,0,0,1-.38-15c20.32-15.22,37.83-34.15,53-56.21a10.62,10.62,0,0,1,15-.51L551,174A10.62,10.62,0,0,1,551.38,189Z"/>
<path class="cls-6" d="M554.43,186.21c-15.47,24.66-33.76,44.75-55.63,59-4.25,4.51-11.61,4.47-16.45-.08l-20.14-19c-4.83-4.55-5.31-11.9-1.06-16.41,21.62-15.73,40-35.63,55.63-59,4.25-4.51,11.61-4.47,16.45.09l20.14,19C558.2,174.36,558.68,181.7,554.43,186.21Z"/>
<line class="cls-4" x1="1190.87" y1="618" x2="1055.64" y2="799.94"/>
<path class="cls-2" d="M801.09,431.26s-22.71,32.11-43.6,43.47c0,0-7.11,3.66,4.15,11.36S764,512.32,764,512.32s-2.18,7.4,9.13-.6S838.41,451,836.83,435s-7.84,7.83-20.28-2.39S804.8,425.6,801.09,431.26Z"/>
<path class="cls-7" d="M801.46,438.4S782,466.32,764.17,476.2c0,0-6.08,3.18,3.55,9.87s2,22.8,2,22.8-1.87,6.44,7.81-.51S833.39,455.6,832,441.68s-6.7,6.81-17.35-2.07S804.64,433.48,801.46,438.4Z"/>
<path class="cls-4" d="M853.21,424.33s-14.56,51.84,1.08,54.8,21-26.37,25-22.66"/>
<path class="cls-4" d="M896.84,449.23s40.65-41.36,143.76,58.64,68,70.22,77.34,99.56,52,38.66,52,38.66"/>
<line class="cls-4" x1="0.59" y1="635.71" x2="272.03" y2="855.13"/>
<polygon class="cls-2" points="480.53 410.16 708 514.52 709.76 519.89 271.26 861.28 2.73 641.89 0.59 635.71 354.88 350.4 433.57 380.99 435.17 390.41 72.29 677.87 480.53 410.16"/>
<line class="cls-4" x1="433.57" y1="380.99" x2="72.29" y2="677.87"/>
<polyline class="cls-4" points="708 514.52 272.03 855.13 271.26 861.28"/>
<path class="cls-4" d="M473.79,414.59S497.74,425,513,425.49"/>
</svg>