<svg id="圖層_1" data-name="圖層 1" xmlns="http://www.w3.org/2000/svg" viewBox="0 0 1000.33 843.85">
<defs>
<style>.cls-1,.cls-2,.cls-3,.cls-5,.cls-6{fill:none;}.cls-1,.cls-2,.cls-3,.cls-4,.cls-5,.cls-6,.cls-7{stroke:#354b5f;}.cls-1,.cls-4,.cls-7{stroke-miterlimit:10;}.cls-2,.cls-3,.cls-5,.cls-6{stroke-linecap:round;stroke-linejoin:round;}.cls-3,.cls-7{stroke-width:0.5px;}.cls-4,.cls-7{fill:#7b8ea4;}.cls-5{stroke-width:0.75px;}.cls-6{stroke-width:0.25px;}</style>
</defs>
<path class="cls-1" d="M359.23,28.06S332,4.14,296.29,31.22s-19,107.89,51.47,130.38S433.49,64.36,359.23,28.06Z"/>
<ellipse class="cls-1" cx="531.49" cy="491.33" rx="13.96" ry="15.71" transform="translate(33.68 1016.75) rotate(-89.3)"/>
<path class="cls-1" d="M549.51,516.81a32.77,32.77,0,0,1-19.28,5.92c-17.83-.22-32.11-14.46-31.89-31.81s14.83-31.23,32.66-31,32.12,14.46,31.9,31.8a30.76,30.76,0,0,1-7.61,19.89l-4.8-4.33-5.29,5.17Z"/>
<path class="cls-2" d="M81.88,201.58s-27.27-20-47.27,7.28S14.12,277.42,91.8,355s164.14,80.65,193.93,55.46,10.55-58.85-32.45-79S81.88,201.58,81.88,201.58Z"/>
<path class="cls-1" d="M425.21,418.11s-10.38,45.08-.67,55,82,67.14,91.68,79.05"/>
<path class="cls-1" d="M576.05,461.24S953.21,644.76,978.42,672.59c0,0,21.5,10.1,21.41,18s-4.3,29.43-4.3,29.43-4,3.89-5.89-.07-2,3.91-7.84-2.06-2,5.87-15.68-4.12-2,5.87-17.64-4.15-11.79-.15-23.51-6.19l-7.79-6s-11.82,1.82-15.7-2.16l-7.82-4-7.86-.09-11.72-6-5.87-2s-7.86-.1-13.71-4.1-9.78-4.06-9.78-4.06l-11.8-.14-11.69-8-9.83-.12-13.66-8-1.23,2"/>
<path class="cls-3" d="M433.93,371.25l-5.17,78s-9.88,3.89,13.49,22.25,103.19,83.58,110.91,95.72S709.21,701.38,764.07,742"/>
<path class="cls-3" d="M295.23,399.8c14.12-29.31,16.95-61.71-30.06-76.05S94.09,168.31,48.76,177.58,18.41,248,18.41,248,27.16,328.35,156,408.9c0,0,99.68,46.44,139.45,9.58s1.91-74.64,1.91-74.64"/>
<path class="cls-3" d="M273.89,36.13s20.74-30.49,58-24.13,64.57,24.38,77.82,65.83-4.58,78.74-26.36,86.56C331.18,183.11,242.59,88.92,273.89,36.13Z"/>
<path class="cls-3" d="M265.76,177.62s-3.75,9.26,24.81-1c24.05-8.64,62.85,4.7,72.56,14.65s20.56,25,30,54.56"/>
<path class="cls-4" d="M532,500.2l-9.12-4.88L519,499.24c0,.44,9.11,11.13,23,2.5Z"/>
<path class="cls-1" d="M746.32,618.67s12.44,11.91,26.2,12.08,21.46,14,31.31,12.18,7.81,4,19.58,6.14,9.83.12,13.71,4.1,9.8,2.08,13.71,4.1,13.66,8,21.55,6.16c0,0,3.93.05,9.78,4.05s7.81,4,15.68,4.12,11.67,10,17.59,8.08,19.53,10.07,27.42,8.2,13.64,10,21.52,8.13,19.56,8.11,25.51,4.25c0,0,4-1.92,5.89.07,0,0,4.07.39,4.06-8.79"/>
<path class="cls-3" d="M349.63,367.22c-5.7.59-24.56,74.8-11.76,92.8"/>
<path class="cls-5" d="M344,392.49s-3.22,30.14-2.13,40.71"/>
<line class="cls-3" x1="341.91" y1="433.2" x2="448.7" y2="493.94"/>
<path class="cls-3" d="M348.54,391.49l-4.5,1s27.5,36.64,80.72,29.53"/>
<path class="cls-5" d="M347.26,445.8a28.14,28.14,0,0,0-5.58-1.45s1.2-9.74.61-10.93"/>
<path class="cls-4" d="M421,444.14c-2.37,3.8-4.74,22.8-2.81,25.18s1,4.76-6.38,3.64l34.85,19.82S423,474.85,420.82,465.19l-.43-17.28Z"/>
<path class="cls-3" d="M400.82,254.09c3.94-24,30.7-37.22,30.7-37.22"/>
<path class="cls-3" d="M407,250.8a18,18,0,0,0,1.72-3.42c4.1-9.91,9.48-15.28,10.22-15.93.92-.82,1.23-1.14,1.62-1.52a46.54,46.54,0,0,1,5.13-4l3.11-.82,2.15,4.94"/>
<path class="cls-2" d="M407,250.8l.91,2.07s1,1.4-.91,1.41c0,0-4.5.78-6.5-.11s-7.33-8.34-7.33-8.34C358.61,169.54,311,179.5,297,181.65c-8.18,1.26-8.92,3.29-19.77,5.18a23.91,23.91,0,0,1-8.56-.4c-8.28-3-2.68-9.13-2.68-9.13,24.92-28.2,3.66-57.94,3.66-57.94C235,60,262.85,32.77,262.85,32.77c61.9-77.87,145.35,9.65,145.35,9.65,50.73,89.9,19.11,101.8,11.33,131.24,1.71,11.66,6.22,38.59,12,43.21,6.8,3.2,2.27,8.63-.59,13.16,29.77,72,42.62,140.42,55.55,161.31,13.5,21.79,89.57,69.9,89.57,69.9,17.4,23.81,180.59,166.36,180.59,166.36l39.87,33s123.63,65.77,139.07,139.25c1.41,6.72,7.88,37.48-2.25,42.73a8.82,8.82,0,0,1-6.15.41c-33.51,7.46-343.06-238.14-378.1-266.1s-60.4-44-81.93-52.11-62.51-32.22-64.45-34.21c-32.77-33.59-40.91-37.33-49.29-41.92a51.44,51.44,0,0,0-7.67-3.11c-1.11,5.3-3.83,8.52-5.33,12.22-3.32,8.22-37.15-11-48.59-6.84-35.71,9.8-97.19,14-140-13.6-43.26-27.86-72.25-47.05-122.46-120.4S5.2,202.61,27.21,171.42s57.07-5.19,66.88-3.11,167.61,118,200.71,144c20.59,16.14,28.3,27.56,31.19,33.9,6.68,4.82,23.87,17.7,24.35,22.95.18,2,1.82,13.31.34,24.6.27.33-2.33-2.36-2.06-2,32.17,39.14,76.59,26.38,76.59,26.38,16.26-43.05,4.83-72.68,4.83-72.68-4.53-40.19-11.74-70.6-22.61-93.8"/>
<path class="cls-3" d="M425.67,225.91s26.15,64.89,31.7,90.89-1.55,59.72,29.11,90.41S550,457,660.26,554.35,814.75,684.88,882.51,742c37.63,31.71,58,87.06,54.41,96.54"/>
<path class="cls-4" d="M550.15,516.82l1.08,1.75s-26.6,18.69-48.64-4.11a9,9,0,0,1-1.64-2.4c-2.25-4.77-8.81-20.61-1.27-29.75,0,0-6.42,34.47,26.92,40.42C526.6,522.73,542.48,522.94,550.15,516.82Z"/>
<polygon class="cls-4" points="555.52 512.13 550.5 507.27 550.51 507.87 550.5 507.83 545.37 512.62 550.94 510.11 554.73 513.46 555.52 512.13"/>
<path class="cls-4" d="M526.53,477.91s3.78-4.87,12.34-2,9.64,12.81,8.64,14.92C548.32,490.44,541.47,474.43,526.53,477.91Z"/>
<path class="cls-3" d="M525.2,462.94s17.22-2.4,26.84,9.3"/>
<path class="cls-3" d="M529.2,466.62a23.52,23.52,0,0,1,18.34,6.45"/>
<path class="cls-3" d="M895,738.55s21.33,23.41,24.29,29"/>
<path class="cls-3" d="M895,742.23s16.3,17.89,18.56,22.19"/>
<path class="cls-3" d="M895.62,745.93s10.71,11.75,12.2,14.58"/>
<path class="cls-4" d="M291.37,451.13s5.78-10.67,12,0C303.37,451.13,293,449.13,291.37,451.13Z"/>
<path class="cls-6" d="M925.81,800.4c-9.78-4.22-19.56,4.67-14,12.89s-23.56,3.78-44.67-8.67-97.33-63.33-110.67-68"/>
<path class="cls-6" d="M629,513.46s-6.62-11.32,9.83-4.66,31.12,21.45,57.89,23.4S942,650.35,946.48,662.35s36.52,30.52,53.35,29.19"/>
<path class="cls-6" d="M262.75,106.28s28.94,25.74,13.67,52.61"/>
<path class="cls-6" d="M554.73,513.46s3,54.82,55.75,60.74,96.6,12.45,119.12,52.74,95.51,73.15,141.83,105.72"/>
<path class="cls-6" d="M525.25,460s6.14-22.74-23.2-30.87-48.13-86.72-77.29-122.75"/>
<path class="cls-7" d="M766.54,635.79l27.52,22.78,2.63-3,15.13,8.12h9.63l12.44,7.72s13.63-2.39,19,2.35,16.6,7.41,17.93,7.11S886,688.13,886,688.13h8.59l8.15,4.74s8.45,3.26,14.82,2.07l8.44,6.21s1.28,2.54,11.68.76,12.62,9.48,16.62,7.41,5.77-2.46,9.77.25,8.15,6.41,12.74,4.63,6.08,3.26,8.3,2.82,4-3.95,6.52,0,4.21,1.1,4.21,1.1l2.6-15.18c-1.64,5.5-4.63,3.24-4.63,3.24-1.94-2-5.9-.07-5.9-.07-5.94,3.86-17.62-6.12-25.5-4.25s-13.64-10-21.53-8.12-21.5-10.1-27.42-8.2-9.73-8-17.59-8.08-9.83-.12-15.68-4.13-9.78-4.05-9.78-4.05c-7.88,1.87-17.64-4.15-21.55-6.16s-9.82-.12-13.71-4.1-1.94-2-13.71-4.1-9.73-8-19.58-6.14-21.6-12.85-35.36-13"/></svg>