<svg id="圖層_1" data-name="圖層 1" xmlns="http://www.w3.org/2000/svg" viewBox="0 0 1357.98 1839.54">
<defs>
<style>.cls-1,.cls-2,.cls-3,.cls-4,.cls-6,.cls-8,.cls-9{fill:none;}.cls-1,.cls-2,.cls-3,.cls-4,.cls-5,.cls-6,.cls-7,.cls-8{stroke:#354b5f;}.cls-1,.cls-4,.cls-8,.cls-9{stroke-miterlimit:10;}.cls-2,.cls-3,.cls-5,.cls-6,.cls-7{stroke-linecap:round;stroke-linejoin:round;}.cls-3,.cls-8,.cls-9{stroke-width:0.5px;}.cls-4,.cls-6,.cls-7{stroke-width:0.75px;}.cls-5,.cls-7{fill:#7b8ea4;}.cls-9{stroke:#7b8ea4;}
</style>
</defs>
<path class="cls-1" d="M.1,1839.05s897.51-179.63,836.49-798.35C816.75,839.5,394.22,1204.17,353,855.79,333.06,687,496.82,582.35,671.1,519.24c0,0,23.4-6.73,30.15-13.52s8.2,3.59-9,13.21S533.09,576.49,454,643.16"/>
<path class="cls-1" d="M839.5,465.89C864.64,438,899,398.28,912,383.76c2.33-2.6,16.17-24.1,34.8-31.22s76.6-63.38,98.66-87.61,5.38-71.64,5.38-71.64"/>
<path class="cls-2" d="M767.26,517.93s34.16-11.09,58.42-37c4.06-4.34,8.75-9.47,13.82-15.08"/>
<path class="cls-3" d="M710.26,499.22C709.39,520,727,534.37,756.61,524"/>
<path class="cls-2" d="M1162.41,499.33c41.66-19.33,56.43-30.64,76.39-74.61,0,0,8.46-9.31,20.9-10s39.12,1.09,33.78-39.79,12.45-115.72,12.45-115.72"/>
<path class="cls-2" d="M1045.82,520.59c9.12,2.57,18.8,3.4,31.32,1.31,43.31-7.25,41.82-2.57,81.47-20.81"/>
<path class="cls-2" d="M1009.59,497.68a69.65,69.65,0,0,0,29.56,21.05"/>
<path class="cls-2" d="M990,100.51s-11.73,18.79-23.78,27.82-16.31,25.06-31.94,38.48-58.1,64.07-66.73,69.68-43.16,41.76-50.29,57.37-32.9,52-35.23,54.64l-2.33,2.6s-30.18,41.79-41.78,60.27c-7.3,11.62-26.6,49.45-28.13,58.86-1.57,9.69-1.65,16.16,1.35,22.81"/>
<path class="cls-2" d="M803.51,317.47c-5.9,1.32-12.83-.32-15.42-4.29"/>
<path class="cls-4" d="M732,453.3s6.74-9.77,13.82-4.24c10.72,8.37,34.86,26.9,49.74,30.9,3.85,1-21.59,31.81-25.65,35.09-6.41,5.18-30.55,23.63-49.09,10.1-18.29-13.34-9.2-36-3.08-48.89A127.91,127.91,0,0,1,732,453.3Z"/>
<path class="cls-2" d="M1028.88,489.24c18.87-10.89,38.59-29.33,64.18-51.16,0,0,9.59-9,20.41-18.74.19-.17.64-.27.57-.52-.5-2,.56-3.21,2.92-3.05a2.5,2.5,0,0,0,1-.41c7.49-6.66,15-13.15,20-16.85,13.15-9.85,8.37-31.09,13.71-41.08"/>
<path class="cls-2" d="M852.81,455.5s3.49,52.8,59,54.88c30.14,1.13,54.6-6.12,90.43-11.16,7.69-1.08,14.24-3.49,21.86-7.51"/>
<path class="cls-5" d="M1024.21,295.44c-7.34,7.58-7.21,7.88-7.21,7.88-4-3.28-12.51-.66-7.51,7.52.21.34-4.82,9.49-13.34,18.75,0,0-68.48,67.61-101.69,87.85,0,0-14.66,6.71-22.06,17.39s-10.55,5.34-19.59,20.67l-2.17-2L928,365.1s6.11-7.65,23.4-14.8c15.52-6.41,99-95.07,101.55-96.87a106.1,106.1,0,0,1-20.84,34.64s.87-5.48-4.32-2C1023.82,288.72,1024.21,295.44,1024.21,295.44Z"/>
<path class="cls-2" d="M700.84,506.12c6.52-8.69,10.11-12.71,10.11-12.71a45.13,45.13,0,0,1-1.44-21.3S689.17,497.29,668.6,520"/>
<path class="cls-2" d="M655.28,534.51c-12.12,13.16-23.87,23.24-27.2,25.45,0,0-9.35,2.91-7.07,8.13,2.77,6.37,7.44,9.79,11,8.4,3.24-1.29.73-4,1.78-5.62,1.63-2.59,13.7-6.84,20.69-14.64,4.53-5.06,17.56-19.44,32.14-34.57"/>
<path class="cls-5" d="M620.65,566.48s-1.7,5.21-2.8,6-36.86,25-61.1,30.38c0,0-3.29,2.46,5.61,1.78s56.25-20,66.6-27.88C629,576.79,622,573.52,620.65,566.48Z"/>
<path class="cls-2" d="M434.18,672.64c.84.92,1.86.58,5.15-1.45,6.44-4,15.22-24.24,61-50s44.52-10.25,57.94-8.33,10.82-7.26,7.81-6.71S562,604.7,562,604.7"/>
<path class="cls-2" d="M557.75,602.66s-13-11.28-38.26.76-63.43,33-86.86,60c0,0-2.2,1.64-.69,4.79"/>
<path class="cls-5" d="M356,795.25c13.95-9.51,32.22-67.79,49.35-91.75s32.89-31.49,30.56-35.74-21.1,17.52-21.1,17.52-14.69,9.22-30.57,49.44c-20.06,50.81-32.29,56.91-34.39,58.83-.59.54-5.87,4.46-6.37,4.82-9,6.41-67.65,50.69,12.32,76.38l-1-5.93S272.82,851.93,356,795.25Z"/>
<path class="cls-5" d="M1023.17,372.54c.35-2.52.76-5.32,1.16-7.91l.55-4.15c-2.83-3.52-4.94-6-6.84-6.52-.48.32-.3,5.69-1.21,11.71"/>
<path class="cls-6" d="M1121.7,547.88c3.7,1.08,4.51-.71-.16-2.13"/>
<path class="cls-7" d="M802.37,481.15c-18.07.29-66.33-40.34-66.33-40.34s-11.64,17.49-5.4,14.24c0,0,5.81-8.88,11.14-7.69s44.9,34.75,52.6,36.79l-3,4.47a21,21,0,0,0,7-3.32C801.78,482.78,802.37,481.15,802.37,481.15Z"/>
<path class="cls-8" d="M834.42,269.88s35.36-31,56.1-10.67,20.74,26.83,26.07,29.2,15,6.52,15.22,10.66"/>
<path class="cls-8" d="M852.81,281.3s19.34-12.45,41.86,17.77,15.7,28.85,19.26,15.86S881.46,263.52,852.81,281.3Z"/>
<path class="cls-9" d="M1055.13,210.5c1.24-3.45-8.1-25.48-17.05.28-6.59,18.94-15.41,64-39.12,78.81S976.45,321,964.59,323.67s13-44.15-5.92-30.52-49.19,87.7-59.85,88.29-45,7.12-20.74,6.52,8.29,13,1.18,13-16.56,13.73-3,10.67S815.11,494.62,802.37,493s-14.19.37-14.19.37-17,20.81-20.39,23.31S807,501,823.26,483.46,931.62,361.21,931.62,361.21s16.11-10.92,20.86-11.73,83.15-74.18,97.41-91.25C1061.78,244,1055.13,210.5,1055.13,210.5Z"/>
<path class="cls-3" d="M905.33,196.85s-43.32-8.3-54.69,0,11.73-1.48,16.18,3.71-14.67,5.18-3,10.66S885,206.41,886.06,218"/>
<path class="cls-3" d="M990,100.24s-34.89,14.1-43.78,24.17-19,1.78,41.19-28.74c0,0,14.81-8.59,11.85-5S990,100.24,990,100.24Z"/>
<line class="cls-3" x1="817.79" y1="258.44" x2="805.36" y2="273.76"/>
<path class="cls-2" d="M1163.59,512.45a174.16,174.16,0,0,0,49-6.86c44.45-12.44,24.89-21.33,66.67-26.22s41.78-50.47,56.89-65,11.55-37.07,21.33-97.37"/>
<path class="cls-2" d="M1138.5,509.74s7.32,2.11,20.8,2.57"/>
<path class="cls-5" d="M1115.22,548.37c6.64,3.39,9.37-3.37,13.82,6.41s35.93,25.31,35.33-16.3c-.89-61.33-10.25-102.44-47.46-122.59-1.36-1-4,1.16-2.65,3.09,0,0,35.68,17.15,44.06,74.93,0,.23.06.46.07.69l2.43,37.66s1.77,49.18-30.3,22c0,0-.91-6.19-6-6.19"/>
<path class="cls-3" d="M736.68,457.84c-2.33,8.67,5.69,53.93,48.62,28.74"/>
<path class="cls-3" d="M810.13,273.76s-8.43,28.13-22,39.42"/>
<path class="cls-6" d="M789.45,315.15c-3.89,2.69-4.89-2.31-4.89-4.31,0-5,4-9,6-14,4-8,11-15,15-23,4-11,11-20,16-30,8-17,9-34,13-52,4-21,21-35,39-46,13-7,26-14,40-19,17-6,34-11,50-21,16-11,26-24,42-35,12-8,26-9,39-13,2-1,4-3,7-4a9,9,0,0,0,5-1c15-8,28-17,43-24,7-4,15-6,23-8,19-7,39-14,58.37-20.46"/>
<path class="cls-3" d="M810.32,267.65s.4-.35,1.25.39c2.1,1.82-16.42,35.75-21.2,42.08-2.73,3.62-4.75,4.47-4.75,4.47"/>
<path class="cls-6" d="M911.77,189.84s-26.89-6.41-48.22,2.26"/>
<path class="cls-6" d="M1006.51,87.75s22.85-20.63,47.88-21.82,34.52,9.49,52.89,0"/>
<path class="cls-3" d="M1209.43,296.49s-38.72,7.12-44.68,24-23.93,41.78-8.14,34.67S1209,316.05,1209.43,296.49Z"/>
<path class="cls-3" d="M1006.51,87.75s-18.34,23.47-16.5,37.1-20.43,41.48-20.43,41.48"/>
<path class="cls-1" d="M1151.58,357.43s48.46-22.33,57.85-60.19S1233,252.3,1233,252.3"/>
<path class="cls-3" d="M1002.2,490.44s-30.3-22.18-32.62-29.29S956.59,437,953.93,434s-3.67-19.24-3.67-19.24"/>
<path class="cls-3" d="M865.05,442.21S854.67,457,860,479.37"/>
<path class="cls-3" d="M1128.65,273.76c8.59-49.5,48-55.76,58.22-75.32"/>
<path class="cls-3" d="M1206.89,436.19c26.15-22.75,49.82-21.13,55.18-21.57"/>
<path class="cls-3" d="M1226.57,498c27.32-21.34,50.87-18.48,56.24-18.65"/>
<path class="cls-3" d="M1050.85,193.29C1039.26,127,1125.43,128.7,1134.37,94"/>
<path class="cls-5" d="M1017.11,355.18c-7.44-2.37-7.11-5.4-7.11-5.4a3.52,3.52,0,0,1,4.52-3.39,19.43,19.43,0,0,1,2.18.42l-5.16-3.39c-2-1.11-2.39-2.5-1.41-4.75l.28-.65a3.79,3.79,0,0,1,5.35-2,18.47,18.47,0,0,1,2.68.68c-12.88-7.54-8.7-11.52-8.7-11.52s1.78-2.77,6.18,0l-4-2.22a4.82,4.82,0,0,1-1.81-6.07l.28-.65a3.28,3.28,0,0,1,4.09-2.11,15.6,15.6,0,0,1-4.1-2.95,4.81,4.81,0,0,1-1.81-6.06l.28-.65a3.79,3.79,0,0,1,5.35-2.05l18,10.05a4.82,4.82,0,0,1,1.81,6.07l-.29.65a3.79,3.79,0,0,1-5.35,2.05c-3-.32-10.15-4.11-13.84-7.11,3.93,3.45,12.35,7.29,17.55,9.19a4.81,4.81,0,0,1,1.81,6.06l-.28.65c-1,2.2-2.76,3.35-4.71,2.33l3.44,2c4.16,2.4,8.9,11.19,4.62,12.12l-2.79.29c-2.93-1.64-2.67-3.35-4-3.19.64.5,1.28,1,1.92,1.54,4.65,4.57,3.89,7.47,2.91,9.71l-.28.66c-1,2.16-4.32-.58-6.26-1.52l4.06,2.27s3.74,5-1.89,10.09c-2.32,2.29-6.06-.62-6.06-.62"/>
<path class="cls-3" d="M1016,352.59s7,2.65,11.33,11.84"/>
<path class="cls-5" d="M1017.61,357.43s-3.24-4.73-7,1.94,8.45,23.78,15.86,20.59-8.11-8-9.57-14.6Z"/>
<path class="cls-3" d="M1030.42,343.77a65.34,65.34,0,0,0-12-7.15"/>
<path class="cls-3" d="M1015.71,325.13s7.9,3.05,13.17,7.21"/>
<path class="cls-3" d="M1016.35,346.81a65.61,65.61,0,0,1,12,7.15"/>
<path class="cls-6" d="M1112.3,544c-.24.39-1.44-5.28,5.33-1.19,8.75,5.29,1.62,6.21,1.34,5"/>
<path class="cls-5" d="M1022.16,380.35c-19.38,157.36,60,167.5,80.06,164.65a50.78,50.78,0,0,1,9.73-.67l.6.06s6.75.73,6.42,3.49l-.45.12c-11.2,1-41.41,9-73.55-22.72-35.07-34.68-34.05-112.49-29.26-150.43l3.1,3.15Z"/>
<path class="cls-1" d="M431.43,666.34S409.94,686.48,408,691.87"/>
<path class="cls-2" d="M407,693.05s-30.51,28.64-42.79,83.61"/>
<path class="cls-2" d="M362.26,788.38c-4-2-27.62,228.64,157.89,215,152.46-11.22,285.45-84.45,319.39-2.44,27.71,67,67.8,368.73-320.08,643.61-92.72,65.7-200,110.13-296.65,144"/>
<path class="cls-5" d="M585.37,1006.73c-86.78,42.47-167.89-1.58-172.33-56.25s-49.92-80.74-49.92-80.74l1.2,6.69s43.56,38.66,42.65,75.38c-.89,36.15,71.4,113.19,178.4,62.67l20.26-11.6Z"/>
<path class="cls-5" d="M1028.67,310.48s4.7-23.92,3.15-25.15-6.17.34-7.06,5.34c-.32,1.82.21,3.6-1.81,16.61Z"/>
<path class="cls-5" d="M599.49,992.67S732,886.44,800.43,938.89s14,215,32.13,249.94l-2.14,12.32s-19.4-13.86-4.66-105.82S821,844.86,619.65,988.42Z"/>
<path class="cls-5" d="M846.17,1202S924,1265.18,893,1333.75c-44.53,98.44-312.89,193.77-363.85,241.18,0,0-5.41,4.37-3.85,0s54.51-46.44,213-129.18c175.41-91.56,177.69-156.57,106-234.68Z"/>
<path class="cls-5" d="M522.71,1581.05s-10.93,19.38-10.88,14.42,10.76-19.46,10.86-17.91S522.71,1581.05,522.71,1581.05Z"/>
</svg>